<?xml version="1.0" standalone="no"?><!DOCTYPE svg PUBLIC "-//W3C//DTD SVG 1.1//EN" "http://www.w3.org/Graphics/SVG/1.1/DTD/svg11.dtd"><svg t="1775096983982" class="icon" viewBox="0 0 1024 1024" version="1.1" xmlns="http://www.w3.org/2000/svg" p-id="11576" xmlns:xlink="http://www.w3.org/1999/xlink" width="128" height="128"><path d="M853.333333 768 768 768 768 394.666667 512 554.666667 256 394.666667 256 768 170.666667 768 170.666667 256 221.866667 256 512 437.333333 802.133333 256 853.333333 256M853.333333 170.666667 170.666667 170.666667C123.306667 170.666667 85.333333 208.64 85.333333 256L85.333333 768C85.333333 814.933333 123.733333 853.333333 170.666667 853.333333L853.333333 853.333333C900.266667 853.333333 938.666667 814.933333 938.666667 768L938.666667 256C938.666667 208.64 900.266667 170.666667 853.333333 170.666667Z" p-id="11577" fill="#515151"></path></svg>